<?xml version="1.0" encoding="utf-8"?>
<!-- Generator: Adobe Illustrator 26.1.0, SVG Export Plug-In . SVG Version: 6.00 Build 0)  -->
<svg version="1.1" id="Layer_1" xmlns:bx="https://boxy-svg.com"
	 xmlns="http://www.w3.org/2000/svg" xmlns:xlink="http://www.w3.org/1999/xlink" x="0px" y="0px" viewBox="0 0 154.1 233.6"
	 style="enable-background:new 0 0 154.1 233.6;" xml:space="preserve">
<style type="text/css">
	.st0{display:none;fill:#15243A;}
	.st1{display:none;fill:#15243A;stroke:#15243A;stroke-miterlimit:1;}
	.st2{display:none;fill:#6EFE06;}
	.st3{display:none;fill:#F3F4F5;}
	.st4{display:none;fill:#7BFB14;}
	.st5{display:none;fill:#60F806;}
	.st6{display:none;fill:#89FD08;}
	.st7{display:none;fill:#2DF823;}
	.st8{display:none;fill:#26FD39;}
	.st9{display:none;fill:#9CFC0B;}
	.st10{display:none;fill:#18FB68;}
	.st11{display:none;fill:#2CFD29;}
	.st12{display:none;fill:#29FC31;}
	.st13{display:none;fill:#1FFD51;}
	.st14{display:none;fill:#7DFC07;}
	.st15{display:none;fill:#24FD41;}
	.st16{display:none;fill:#90FB09;}
	.st17{display:none;fill:#21FD48;}
	.st18{display:none;fill:#1CFD59;}
	.st19{display:none;fill:#65FF05;}
	.st20{display:none;fill:#5AFC05;}
	.st21{display:none;fill:#1AFD61;}
	.st22{display:none;fill:#14F871;}
	.st23{display:none;fill:#E5E6E8;}
	.st24{display:none;fill:#2E3B4F;}
	.st25{display:none;fill:#D8D8D8;}
	.st26{display:none;}
	.st27{fill:#7DFF13;}
	.st28{fill:url(#SVGID_1_);}
	.st29{fill:url(#SVGID_00000062874060207207711490000001329231718192173988_);}
	.st30{fill:url(#SVGID_00000151509406059105164270000002390318682684406961_);}
</style>
<rect x="-74.8" y="-32.9" class="st0" width="301.1" height="413.9"/>
<g>
	<path class="st1" d="M-321.9,359.3c-61.7,0-122.8,0-184,0c0-136.3,0-272.7,0-409c98.7,0,197.3,0,296,0c0,136.3,0,272.7,0,409
		C-247.1,359.3-284.2,359.3-321.9,359.3 M-371.1,197.6c-0.1,0.2-0.2,0.4-1.1,0.7c-2.2,0.8-4.5,1.6-7.5,2.4
		c-5.2,0.9-10.4,2.1-15.7,2.5c-5.3,0.4-10.6,0.2-15.9-0.2c-5-0.4-10-1.3-15-1.9c2.8,2.3,5.7,3.6,8.6,4.6c16.5,5.7,33.2,9.5,51.6,6.3
		c2.1-0.4,4.3-0.6,6.3-1.4c5.7-2.3,11.3-4.8,17.7-7.3c5.4-4,10.8-8,16.8-12.3c4.6-5.5,9.2-11.1,14.3-17c2.7-4.6,5.5-9.1,8.7-14.2
		c2.5-5.5,5-11,7.9-17.1c2.2-5.8,4.4-11.6,7-18c1.6-6.1,3.1-12.3,5.1-19c0.8-5.5,1.5-10.9,2.5-17.2c-0.1-9.7-0.1-19.4-0.1-30
		c-1.4-12.9-4.3-25.4-10.9-36.7c-0.5-0.8-1.9-1.1-3.6-1.3c0.1,6.1,0.5,12.1,0.3,18.1c-0.6,13-5,25.1-10.5,37.5
		c-3.7,5.9-7.3,11.7-11.5,18c-4.6,5-9.1,10-14.3,15.3c-6.8,4.8-13.7,9.7-21.2,14.6c-9.8,4.8-20.2,7-31.7,7.9
		c-18.2,0.6-34.7-4.9-49.8-15c5.7,10.8,15.3,16.3,25.4,21c14.4,6.7,29.9,11.4,42.6,22.6c0.4,0.3,0.7,0.5,1.1,1
		c0.1,0.2,0.2,0.3,0.7,0.9c1.4,2.5,2.9,4.9,4.1,7.9c0.1,0.3,0.3,0.7,0.4,1.9c0.9,7.1-0.5,13.6-5.5,18.9c-2,2.2-4.2,4.1-6.4,6.2
		C-370.9,197.4-370.9,197.4-371.1,197.6 M-355.8,68c-1.5,5.8-3.1,11.5-5,18c-2.3,10-6.8,18.5-15.8,24.2c12.5-2.2,24.4-5,35.4-13.1
		c3.5-3.2,11.2-10.4,12-14.1c1.2-5.3,1-6.6,0.6-9.7c-0.9-6.6-6.9-12.4-13.1-13.8C-346.9,58.6-352.8,60.6-355.8,68 M-381.2,305.4
		c6.5,0.3,8.4-1.1,10.3-7.5c1.6-5.4,4.3-6.3,9.4-4.8c3,0.8,6.7-0.1,9.9-1c2.1-0.6,3.7-2.4,5.6-3.8c3,6.9,5.2,7.3,11.7,3.8
		c3.9,0.7,6.7,1.1,10.1,1.7c3.8-2.1,7.6-4.3,11.3-6.4c-0.3-0.4-0.5-0.8-0.8-1.2c-1.1,0.1-2.2,0.2-3.2-0.7
		c-0.3-5.7-0.7-11.5-1.1-18.9c-3.4,2.1-6.5,3-7.7,5c-3,4.9-5.1,10.3-7.8,15.4c-0.6,1.1-2.2,1.6-3.3,2.3c-0.4-1.3-1.2-2.6-1-3.8
		c0.8-5.2,2-10.3,3.1-15.8c-2.6,0-4.7,0-6.9,0c-0.7,3.2-1.5,6.3-2.1,9.4c-1.3,6-1.3,6-4.4,7.1c-0.4-6-0.9-11.9-1.3-17.6
		c-4.8-0.8-7.8,0.2-8.9,5.1c-0.5,2.5-1.8,5-3.1,7.3c-2,3.6-4.3,7.1-6.5,10.7c-0.5-0.2-0.9-0.5-1.4-0.7c1.4-7,2.8-14,4.3-21.3
		c-2.5,0-4.4,0-6.4,0c-3.7,6.1-0.9,14.8-7.2,19.8c-0.7-0.2-1.4-0.4-2.2-0.6c1.2-6.3,2.4-12.6,3.7-19.1c-2.5,0-4.6,0-6.9,0
		c-1,4.7-2.1,9.2-2.9,13.8c-0.4,2.4-1,5.2,0,7.2c0.9,2,3.6,3.1,5.6,4.7c-2.3,4-4.8,0.4-7.7-0.7c-1-0.4-2-0.7-3.6-1.4
		c0.4-3.8,0.4-7.6,1.1-11.2c1.5-7.9,3.3-15.7,5-23.8c-7.8-0.5-13.5,2-17.4,7.9c-2.8,4.2-1.4,7.7,3,8.6c0.1-7.7,1.2-10,6.5-12.6
		c-2.3,11-4.5,21.6-6.5,31.2c5.1,3,9.4,5.5,14.1,8.7C-385.2,303.1-383.5,304.1-381.2,305.4 M-317.9,13c1.1-0.5,2.2-0.8,3.2-1.4
		c7.2-4.1,10.4-12.5,7.7-20.1c-2.8-7.7-10.7-12.4-18.6-11c-8.2,1.4-13.8,8.5-14,17C-339.8,7.2-331.4,15.8-317.9,13 M-334.5,266
		c0.1-1.9,0.6-3.9,0.1-5.6c-0.2-0.7-3.4-1.3-4.2-0.7c-1.1,0.9-2.2,3.9-1.7,4.3C-339.1,265.3-336.9,265.7-334.5,266z"/>
	<path class="st2" d="M74.1,189.9c-1.4-2.5-2.9-4.9-4.5-7.8c-0.2-0.4-0.5-0.7-0.5-0.7c-0.4-0.3-0.7-0.5-1.3-1.4
		c-0.6-4.3-1.8-8-2.3-11.7c-0.1-0.9,0-1.2-0.7-1.6c-4.4-2.7-9-5.6-13.4-8.2c-2.4-1.4-5.3-3.4-1.6-6.2c10.7-1.1,22.8-3.6,33.2-8
		c2,0.9,2.8,1.3,4.2,1.2c3.4-0.2,6.9-1.6,9.4,2c0.2,0.3,1.9,1.4,2.4,0.9c3.9-3.8,7.7-7.8,11.8-11.8c4.3-3.3,8.5-6.3,12-9.9
		c3.6-3.7,6.6-10.1,10.1-13.9c0.8,1.8,1.9,5.2,2.4,7.1c0,1.1-0.7,2-0.8,3c-0.3,0.5,0.4,1.9-0.1,2.2c-0.5,0.7-1.6,0.1-1.8,0.6
		c0,0,0.1,0-0.3,0.2c-1.2,1.5-2,3-3.1,4.1c-1.5,1.4-3.3,2.4-4.9,3.7c-2.6,2-5.5,3.8-7.4,6.3c-2.7,3.6-4,8.1-6.5,11.8
		c-4.6,6.6-3,15.3,3.6,18.4c-3.1,5.4-6.5,10.4-9.8,15.4c-0.2,0-0.6,0.1-1,0c-2.2-1.1-4.1-2-5.9-3.1c-4.6-2.9-9.9-2.5-14.2,0.9
		C80.2,185.4,77.1,187.6,74.1,189.9z"/>
	<path class="st3" d="M108.5,313.7c-2.8-0.5-5.5-0.9-9.4-1.6c-6.5,3.6-8.7,3.1-11.7-3.8c-1.9,1.3-3.6,3.2-5.6,3.8
		c-3.2,0.9-6.9,1.8-9.9,1c-5.1-1.4-7.8-0.6-9.4,4.8c-1.8,6.4-3.8,7.8-10.7,7c-2.1-1.5-3.8-2.5-5.5-3.5c-4.3-2.5-8.7-5.1-13.8-8.1
		c2-9.6,4.2-20.2,6.5-31.2c-5.3,2.6-6.4,4.9-6.5,12.6c-4.4-0.9-5.8-4.4-3-8.6c3.9-5.9,9.6-8.3,17.4-7.9c-1.7,8.1-3.5,15.9-5,23.8
		c-0.7,3.7-0.8,7.5-0.7,11.7c1.5,0.8,2.5,1.1,3.5,1.5c2.5,0.6,5.1,4.1,7.4,0.2c-2-1.6-4.7-2.7-5.6-4.7c-0.9-2-0.4-4.8,0-7.2
		c0.8-4.6,1.9-9.1,2.9-13.8c2.3,0,4.4,0,6.9,0c-1.3,6.5-2.5,12.8-3.7,19.1c0.7,0.2,1.4,0.4,2.2,0.6c6.3-4.9,3.5-13.7,7.2-19.8
		c1.9,0,3.9,0,6.4,0c-1.5,7.3-2.9,14.3-4.3,21.3c0.5,0.2,0.9,0.5,1.4,0.7c2.2-3.6,4.5-7.1,6.5-10.7c1.3-2.3,2.6-4.8,3.1-7.3
		c1-4.9,4-5.9,8.9-5.1c0.4,5.8,0.8,11.7,1.3,17.6c3.1-1.1,3.1-1.1,4.4-7.1c0.7-3.1,1.4-6.1,2.1-9.4c2.2,0,4.3,0,6.9,0
		c-1.1,5.4-2.2,10.6-3.1,15.8c-0.2,1.2,0.6,2.5,1,3.8c1.1-0.8,2.7-1.3,3.3-2.3c2.7-5.1,4.8-10.5,7.8-15.4c1.3-2,4.4-2.9,7.7-5
		c0.4,7.5,0.8,13.2,0.7,19.5C113.3,308.9,110.9,311.3,108.5,313.7 M109.5,306.3c-0.2-3.3-0.5-6.5-0.7-9.8c-0.3,0-0.7,0-1,0
		c-1.5,4.1-3,8.1-4.6,12.7C105.6,311.5,107.8,310.5,109.5,306.3 M74.7,310.2c3.9-2.7,4.6-7.6,1.5-14.1c-1.4,4.4-2.8,8.5-4.3,13.1
		C72.1,309.3,73,309.8,74.7,310.2 M44.1,316.9C44.1,316.9,44,316.9,44.1,316.9z"/>
	<path class="st4" d="M115.1,33.1c-13,2.7-21.5-5.9-21.3-15.7C94,9,99.6,2,107.8,0.5c7.9-1.4,15.8,3.3,18.6,11
		c2.8,7.6-0.4,16-7.7,20.1C117.7,32.2,116.6,32.6,115.1,33.1z"/>
	<path class="st5" d="M50.3,152.1c-3.3,3-0.6,4.5,1.7,5.9c4.4,2.6,8.9,5.1,13.3,7.7c0.6,0.4,0.9,1.6,1,2.5c0.5,3.7,1.7,8.3,2.2,12.4
		c-12.3-10.3-28.6-16-43-22.7C15.3,153.3,5.8,147.7,0,137C15.2,147.1,31.6,152.7,50.3,152.1z"/>
	<path class="st6" d="M72.8,105.7c1.5-5.8,2.8-12.2,4.9-18.3c5.6,2.3,6.6,2.1,9.1,3.7c5.8,3.8,11.2,7.4,16.9,11.3
		c-1.9,5.2-7.3,10.6-11.7,15.2C85.3,113.6,78.8,109.6,72.8,105.7z"/>
	<path class="st7" d="M66.5,231.9c-17.6,3.2-34.3-0.5-50.8-6.2c-3-1-5.9-2.3-8.6-4.6c5,0.7,10,1.6,15,1.9c5.3,0.4,10.6,0.5,15.9,0.2
		c5.3-0.4,10.5-1.6,16.1-2.1c1.8,1.6,3.3,2.7,4.7,4C61.5,227.3,64,229.6,66.5,231.9z"/>
	<path class="st8" d="M105.3,183.2c0,0-0.9,0.4-0.3,0.5c6.1,3.1,11.8,7.3,17.4,10.2c-4.6,5.5-10.3,11.9-15.6,17.6
		c-6.6-2.5-13-4.2-14.9-11.6C95.6,195.2,101.7,187.7,105.3,183.2z"/>
	<path class="st9" d="M128.6,96.6c5-11.9,10-24.9,10.5-38c0.3-6,0.2-12.4,0.7-18.4c1.2,1.6,1.5,3.4,1.8,5
		c1.9,10.4,6.1,20.4,2.5,31.7c0,0.6,1,1.1,0.8,1.8c0,0.8-0.3,1.3-0.3,2.2c3,8.9-2.5,15.1-5.1,21.9C136,100.6,131.8,98.8,128.6,96.6z
		"/>
	<path class="st10" d="M139.5,102.3c1.3-7.1,2.4-14.5,4.1-21.9c3.4-0.7,6.7-0.7,9.7-1.1c0.1,9.7,0.1,19.4-0.3,29.6
		c-1.8,1.2-3,2.8-4.4,3.5c-1.7,0.9-3.6,0.9-5.4,1.8c-0.5-1.9-1-3.8-1.6-5.6c-0.6-1.8-1.3-3.5-2-5.5
		C139.6,102.7,139.5,102.5,139.5,102.3z"/>
	<path class="st11" d="M65.3,232.1c-2.9-2.3-5-4.3-7.5-6.6c-1.4-1.2-3.5-2.5-5-4.1c2.2-1.1,6.1-2.4,8.8-3.4c0.6-0.4,0.7-0.5,0.9-0.7
		c0,0,0,0,0.4-0.1c4.5-1.7,8.8-3.9,13.1-5.4c3.6,2.5,6.6,5.3,9.9,7.6c1.6,1.2,3.1,2.6,4.6,3.9c-5.7,2.4-11.3,4.9-17,7.2
		C71.6,231.4,67.8,231.7,65.3,232.1z"/>
	<path class="st12" d="M89.7,223.8c-1.9-1.3-3-2.5-4.6-3.6c-3.3-2.3-6.9-4.6-10.3-7.4c4.8-4.3,10.7-8.6,15.8-12.7
		c0.8-0.4,1.4-0.6,1.9-0.8c2.1,7.2,8.3,9.5,14.6,12.1C102.1,215.4,95.5,219.7,89.7,223.8z"/>
	<path class="st13" d="M145.7,144.8c-2.2,5.8-4.6,12.1-7.4,18.2c-2.1-0.2-3.6-0.6-5.1-1.3c-4-1.8-8.9-3.9-12.8-6.1
		c2.7-6.5,6.5-14.1,9.3-19.9C135.3,138.7,140.4,142.3,145.7,144.8z"/>
	<path class="st14" d="M72.8,105.7c6.6,2.9,13.4,7,19.3,11.8c-10,8.1-22.8,10.6-35.3,12.8C65.8,124.5,70.4,116,72.8,105.7z"/>
	<path class="st15" d="M122.1,194.2c-5.9-2.7-12.2-5.9-18.1-9c2.7-5.2,6.5-10.1,9.8-15.5c0.3-0.4,3.7-7,3.7-6.6
		c1.6,1.8,1.7,8.2,3.5,9.3c3.6,2.2,6.3,5.4,10,7.5C128.3,184.5,125.1,189.5,122.1,194.2z"/>
	<path class="st16" d="M103.6,102.6c-6-3.6-11.6-7.1-17.4-10.9c-2.5-1.6-5.7-2.5-8.7-4c2-7.4,9-9.2,14-8.1c6.2,1.3,12,7.2,12.9,13.8
		C104.9,96.5,104.9,99.5,103.6,102.6z"/>
	<path class="st17" d="M130.8,180.1c-4-1.8-7.9-3.8-11.5-6c-1.8-1.1-3.1-2.8-4.7-4.9c2.2-4.8,3.9-10.1,6.2-14.1
		c4,1.8,8.8,4.4,12.8,6.2c1.4,0.6,3.1,0.6,5,1.1C136.5,167.9,133.5,174.4,130.8,180.1z"/>
	<path class="st18" d="M145.7,145.1c-5.5-2.2-11-4.8-16.4-8c0.9-4.3,0.6-8,3.4-11.7c0,0,0.4-0.7,0.5-0.9c0.7-1.4,0.3-0.8,0.6-1.4
		c0.3-0.1,0.6-3.9,1.3-4.3c5.6,1.2,10.7,5.6,15.8,6.9C149.3,131.8,147.5,138.6,145.7,145.1z"/>
	<path class="st19" d="M92.7,199c-0.7,0.5-1.3,0.7-2.4,1.1c-1.6-0.6-3.4-0.2-4.5-0.8c-4.1-2.2-6.9-4-11-6.1c-0.1-0.3-0.8-3-0.8-3.6
		c3.1-2.5,6.2-5,9.1-7.4c4.2-3.4,9.9-3.7,14.5-0.8c1.8,1.1,5,2.3,7.2,3.4C101.6,189.2,96.4,194.2,92.7,199z"/>
	<path class="st6" d="M132.5,114.3c-3.2,4-6,8.9-9.5,12.6c-3.5,3.6-7.5,7-11.9,10c-2.8-2.4-5.9-5.2-8.1-7.4
		c4.6-5,9.7-10.4,14.8-15.4c3.3,2.5,6,1.4,8.6-1C128.6,111.2,130.6,111.4,132.5,114.3z"/>
	<path class="st14" d="M103.2,129.3c2.6,2.1,5.4,5,7.8,7.5c-3.6,4.2-7.5,9.2-11.5,13c-0.5,0.5-2.7-1-3-1.4c-2.5-3.6-6-2.4-9.4-2.2
		c-1.4,0.1-2.9-1-4.6-2C89.2,139.1,96,134.3,103.2,129.3z"/>
	<path class="st16" d="M132.7,114.6c-2.3-3.1-4.2-2.6-6.4-0.6c-2.6,2.4-5.7,3.1-8.8,0.4c3.3-6.1,7.5-12.4,11.4-18.6
		c3.5,1.9,6.7,4.1,10.2,6.4c0.4,0.2,0.4,0.4,0.4,1.2c-1.7,5.7-3.2,12-4.8,17.1C134.3,119,133.5,116.4,132.7,114.6z"/>
	<path class="st20" d="M74.4,191.8c4.1,1.7,8.2,3.9,12.2,6.1c1.1,0.6,5.6-0.5,7,0.3c-4.5,3.9-12.8,9.7-17.8,13.8
		c-4.2,1.9-8.3,3.6-12.8,5.3c1.7-2,4-4,6-6.1C73.9,205.8,75.3,199.4,74.4,191.8z"/>
	<path class="st21" d="M134.6,119.8c1.6-5.5,3.4-12.9,5.2-18.3c0.8,1.4,1.8,5.1,2.4,6.8c0.6,1.9,1,2.8,1.5,4.7
		c1.8-0.8,3.2-0.4,4.9-1.3c1.4-0.7,2.8-2.3,4.5-3.1c-0.4,5.5-1.3,11.7-2.2,17.5c-5.3-1-10.3-2.3-15.8-3.7
		C134.7,121.6,134.6,120.9,134.6,119.8z"/>
	<path class="st22" d="M153.3,79.4c-3,0.7-6.4,1-9.7,1.3c-0.1-0.6,0.4-1.9,0.3-2.1c0-0.2,0.1-0.9,0.1-1.7c0.5-10.5-1.1-20-2.5-30.5
		c-0.2-1.6-0.8-4.3-1.6-6.1c0.6,0.4,1.6,2.1,2.1,2.9C148.6,54.6,152,66.1,153.3,79.4z"/>
	<path class="st3" d="M98.6,286.2c-2.1-0.5-4.2-0.9-5.5-2.1c-0.5-0.5,0.6-3.5,1.7-4.3c0.8-0.6,3.9,0,4.2,0.7
		C99.5,282.2,99,284.2,98.6,286.2z"/>
	<path class="st23" d="M108.8,313.7c2.1-2.4,4.5-4.8,7.2-7.3c1.5-0.1,2.6-0.2,3.7-0.3c0.3,0.4,0.5,0.8,0.8,1.2
		C116.8,309.5,113,311.6,108.8,313.7z"/>
	<path class="st23" d="M46.5,321.7c1.5,0.7,3.2,1.8,5,3.1C49.9,324.1,48.3,323.1,46.5,321.7z"/>
	<path class="st23" d="M44.6,315c-0.8-0.1-1.9-0.4-3-1C42.5,314,43.5,314.3,44.6,315z"/>
	<path class="st20" d="M62.4,217.5c0,0.1-0.2,0.2-0.4,0.5C62.1,218,62.2,217.8,62.4,217.5z"/>
	<path class="st5" d="M69.1,181.5c0-0.1,0.3,0.2,0.4,0.3C69.3,181.9,69.2,181.8,69.1,181.5z"/>
	<path class="st14" d="M132.9,124.6c-0.7,3.5-2.4,8.1-3.5,12.1c-2.7,6.5-5.4,12.7-8.1,19.2c-2.3,4.5-4.5,8.5-6.8,13
		c0,0.3-1.7,2.2-1.9,2.3c-6.9-2.8-7.8-13.6-3.2-20.1c2.6-3.7,4.4-8.1,7.1-11.7c1.9-2.5,5.1-5,7.6-7c1.6-1.3,3.2-2,4.6-3.4
		C130,127.8,131.7,126.1,132.9,124.6z"/>
	<path class="st24" d="M109.5,306.7c-1.7,3.8-3.8,4.8-6.3,2.5c1.6-4.5,3.1-8.6,4.6-12.7c0.3,0,0.7,0,1,0
		C109.1,299.8,109.3,303,109.5,306.7z"/>
	<path class="st24" d="M74.3,310.3c-1.3-0.4-2.3-0.9-2.4-1c1.5-4.6,2.9-8.7,4.3-13.1C79.2,302.7,78.6,307.6,74.3,310.3z"/>
	<path class="st23" d="M44.1,316.9C44,316.9,44.1,316.9,44.1,316.9z"/>
	<path class="st10" d="M144.2,77c0.1,0.2,0.6,1.1,0.3,1.7C144.5,78.7,143.9,77.6,144.2,77z"/>
	<path class="st25" d="M-294.7,0.4c0,11.2-11.5,20.2-25.7,20.2s-25.7-9.1-25.7-20.2s11.5-20.2,25.7-20.2S-294.7-10.8-294.7,0.4z"/>
	<path class="st26" d="M-294.2,0.4c0,5.7-3,11-7.7,14.7c-4.7,3.7-11.3,6-18.5,6s-13.8-2.3-18.5-6c-4.7-3.7-7.7-9-7.7-14.7
		s3-11,7.7-14.7c4.7-3.7,11.3-6,18.5-6s13.8,2.3,18.5,6C-297.2-10.6-294.2-5.3-294.2,0.4z M-302.6-13.5c-4.6-3.6-10.9-5.8-17.9-5.8
		s-13.3,2.2-17.9,5.8c-4.6,3.6-7.3,8.4-7.3,13.9s2.8,10.3,7.3,13.9c4.6,3.6,10.9,5.8,17.9,5.8s13.3-2.2,17.9-5.8
		c4.6-3.6,7.3-8.4,7.3-13.9S-298-9.9-302.6-13.5z"/>
</g>
<path class="st27" d="M110.8,33.6c13,0,21-14,14.6-25.2c-3.5-6-10.3-9.3-17.2-8.2C98.9,0.9,92,9,92.7,18.2
	C93.5,27.5,101.5,34.4,110.8,33.6z"/>
<linearGradient id="SVGID_1_" gradientUnits="userSpaceOnUse" x1="-503.218" y1="395.184" x2="-503.218" y2="344.078" gradientTransform="matrix(0.7302 0.6832 0.7982 -0.8531 152.1923 766.9291)">
	<stop  offset="0" style="stop-color:#99FF13"/>
	<stop  offset="1" style="stop-color:#23FF06"/>
</linearGradient>
<path class="st28" d="M94.4,80.5C83.8,76,78.7,84.3,77.6,90.8c-1.1,8.2-2.6,14.9-5.7,21.6c-4,10.6-9.5,13.6-15,17.9
	c3.8-0.6,10.4-2,12.3-2.4c5.8-1.4,11.7-2.7,21.5-9.2c5-3.3,10.5-10.5,11.9-13.5c2.4-5.4,1.8-5.9,2.2-8.7c-0.1-5.4-1.8-8.3-4.4-11.5
	C99.5,83.9,97.7,81.9,94.4,80.5z"/>
<linearGradient id="SVGID_00000080196785640646387250000004371232629675331730_" gradientUnits="userSpaceOnUse" x1="-512.8543" y1="426.6926" x2="-512.8543" y2="249.7435" gradientTransform="matrix(0.7505 0.6609 0.7667 -0.8706 205.0659 764.4945)">
	<stop  offset="0" style="stop-color:#B0FF0A"/>
	<stop  offset="1" style="stop-color:#2DDB01"/>
</linearGradient>
<path style="fill:url(#SVGID_00000080196785640646387250000004371232629675331730_);" d="M139.8,40.4c5.8,12.5,7.3,30.4,8.2,38.4
	c5.1,42.1-50.4,140.9-91,140.6c13.3-5.6,14.4-11.9,16.1-14.8c1.3-3.8,2.7-7.3,2.2-12c-0.7-4.9-5.8-11-6.4-11.2
	c-2.6-3.1-11.6-8.4-11.4-8.1c-25.9-15-46.6-16-57.7-36.2C71.8,174.4,138.3,136.2,139.8,40.4z"/>
<linearGradient id="SVGID_00000079464216800558925680000010311975653162805182_" gradientUnits="userSpaceOnUse" x1="-451.9732" y1="417.8783" x2="-451.9732" y2="224.4963" gradientTransform="matrix(0.7958 0.6056 0.737 -0.9684 224.401 740.3341)">
	<stop  offset="0" style="stop-color:#11FF79"/>
	<stop  offset="1" style="stop-color:#3BDB2D"/>
</linearGradient>
<path style="fill:url(#SVGID_00000079464216800558925680000010311975653162805182_);" d="M139.8,40.3l0.2,0.2
	C182.9,97.9,124.3,277.6,11,223.7c0,0-4-2.5-3.9-2.6c0.1,0,0,0,0.4,0c29.6,4.3,72.9,1.1,96.1-35c34.5-53.6,48.9-106.4,36.3-145.5
	C139.9,40.6,139.7,40.3,139.8,40.3z"/>
<text transform="matrix(1 0 0 1 21.8683 320.2043)" style="display:none;enable-background:new    ; font-family:'ArialMT'; font-size:49px;">Lysis</text>
</svg>
